<svg xmlns="http://www.w3.org/2000/svg" fill="none" viewBox="0 0 1305 362" height="362" width="1305">
<path fill="white" d="M1262.68 260.25L1216.68 206.91L1201.44 223.39V260.25H1169.57V55.8799H1201.44V180.86L1261.29 115.6H1302.72L1239.12 183.07L1304.66 260.25H1262.68Z"></path>
<path fill="white" d="M1080.41 263.71C1058.33 263.71 1039.91 256.46 1025.13 241.96C1010.35 227.46 1002.96 209.45 1002.96 187.92C1002.96 166.39 1010.35 148.39 1025.13 133.88C1039.91 119.38 1058.34 112.13 1080.41 112.13C1094.73 112.13 1107.71 115.36 1119.34 121.83C1130.98 128.3 1140.12 137.07 1146.77 148.16L1119.2 164.92C1115.32 158.08 1109.96 152.68 1103.13 148.71C1096.29 144.74 1088.72 142.75 1080.41 142.75C1067.66 142.75 1056.99 147.09 1048.4 155.77C1039.81 164.45 1035.51 175.17 1035.51 187.91C1035.51 200.65 1039.81 211.37 1048.4 220.05C1056.99 228.64 1067.66 232.94 1080.41 232.94C1088.82 232.94 1096.39 230.95 1103.13 226.98C1109.97 223.01 1115.32 217.65 1119.2 210.91L1146.77 227.54C1140.12 238.62 1130.93 247.45 1119.2 254C1107.56 260.47 1094.63 263.7 1080.4 263.7"></path>
<path fill="white" d="M903.81 140.81C893.56 140.81 884.6 143.9 876.93 150.09C869.36 156.28 864.28 164.45 861.69 174.61H946.07C943.67 164.45 938.59 156.27 930.83 150.09C923.16 143.9 914.16 140.81 903.81 140.81ZM980.02 188.2C980.02 192.45 979.74 196.61 979.19 200.67H861.97C864.56 211.11 870.01 219.47 878.32 225.75C886.73 231.94 896.79 235.03 908.53 235.03C917.58 235.03 925.99 233.14 933.75 229.35C941.6 225.56 947.7 220.81 952.04 215.08L973.52 233.51C966.04 242.93 956.52 250.32 944.98 255.68C933.53 261.04 921.1 263.72 907.71 263.72C884.8 263.72 865.73 256.42 850.49 241.83C835.34 227.24 827.77 209.08 827.77 187.38C827.77 173.34 831.1 160.59 837.75 149.14C844.4 137.59 853.55 128.54 865.18 121.98C876.91 115.42 889.89 112.14 904.11 112.14C925.82 112.14 943.88 119.39 958.29 133.89C972.79 148.3 980.04 166.4 980.04 188.2"></path>
<path fill="white" d="M746.75 112.13C763.93 112.13 777.74 117.35 788.18 127.79C798.71 138.23 803.98 152.04 803.98 169.22V260.25H772.25V179.61C772.25 168.53 768.97 159.61 762.41 152.87C755.85 146.13 747.12 142.76 736.22 142.76C724.77 142.76 715.53 146.18 708.51 153.01C701.49 159.85 697.98 168.9 697.98 180.17V260.25H666.11V55.8799H697.98V135.13C709.8 119.8 726.06 112.13 746.75 112.13Z"></path>
<path fill="white" d="M555.89 263.71C541.48 263.71 527.9 261.12 515.15 255.95C502.5 250.69 491.64 243.57 482.59 234.61C473.54 225.65 466.38 214.94 461.11 202.47C455.84 189.91 453.21 176.51 453.21 162.29C453.21 143.35 457.64 126.17 466.51 110.75C475.47 95.2298 487.8 83.0898 503.5 74.3098C519.2 65.4398 536.66 61.0098 555.87 61.0098C573.88 61.0098 590.42 64.9398 605.47 72.7898C620.53 80.6398 632.67 91.3998 641.91 105.07L612.95 122.94C606.76 113.89 598.68 106.78 588.7 101.6C578.72 96.3398 567.78 93.6998 555.86 93.6998C536.46 93.6998 520.25 100.26 507.23 113.37C494.3 126.39 487.83 142.7 487.83 162.28C487.83 181.86 494.34 198.21 507.37 211.33C520.39 224.45 536.56 231 555.86 231C567.78 231 578.72 228.41 588.7 223.24C598.68 217.98 606.76 210.82 612.95 201.76L641.91 219.63C632.67 233.3 620.53 244.06 605.47 251.91C590.41 259.76 573.88 263.69 555.87 263.69"></path>
<path fill="#01E12B" d="M352.36 91.46C346.13 85.22 339.1 79.86 331.43 75.49L354.04 52.89L301.12 0L119.82 181.11C114.85 186.08 108.27 188.81 101.28 188.81C94.29 188.81 87.71 186.08 82.74 181.11C77.79 176.16 75.06 169.57 75.06 162.54C75.06 155.51 77.79 148.92 82.74 143.97C92.99 133.73 109.66 133.73 119.91 143.97L122.71 146.76L175.71 93.79L172.91 90.99C171.34 89.42 169.69 87.87 168.01 86.4C149.62 70.26 125.95 61.37 101.36 61.37C74.34 61.37 48.93 71.89 29.82 90.98C10.59 110.11 0 135.54 0 162.58C0 189.62 10.53 214.98 29.64 234.09C48.84 253.19 74.24 263.7 101.18 263.7C128.12 263.7 153.7 253.18 172.73 234.08L266.41 140.46C270.64 137.74 275.55 136.3 280.62 136.3C287.63 136.3 294.24 139.03 299.22 144C304.19 148.95 306.92 155.54 306.92 162.56C306.92 169.58 304.19 176.17 299.22 181.12C294.24 186.09 287.63 188.82 280.62 188.82C273.61 188.82 267 186.09 262.02 181.12L259.23 178.34L206.09 231.3L208.9 234.1C210.41 235.61 212 237.1 213.62 238.52C232.11 254.77 255.9 263.72 280.63 263.72C307.78 263.72 333.25 253.23 352.36 234.2C371.53 215.1 382.08 189.74 382.08 162.79C382.08 135.84 371.53 110.57 352.36 91.47M101.2 249.35C78.09 249.35 56.29 240.32 39.8 223.92C23.41 207.53 14.38 185.75 14.38 162.58C14.38 139.41 23.47 117.57 39.98 101.15C56.38 84.76 78.18 75.73 101.37 75.73C121.16 75.73 139.64 82.11 154.96 94.22L121.75 127.41C105.79 118.09 85.79 120.62 72.58 133.81C64.91 141.47 60.69 151.68 60.69 162.54C60.69 173.4 64.91 183.61 72.58 191.27C80.26 198.95 90.45 203.17 101.27 203.17C112.09 203.17 122.28 198.94 129.96 191.27L301.1 20.3L333.7 52.88L162.55 223.94C146.24 240.32 124.44 249.34 101.18 249.34M321.05 162.57C321.05 151.77 316.84 141.62 309.19 134.01C302.47 127.32 293.83 123.26 284.52 122.38L321 85.92C328.91 89.96 336.1 95.18 342.38 101.47C358.87 117.9 367.95 139.68 367.95 162.79C367.95 185.9 358.87 207.77 342.38 224.19C325.94 240.57 304 249.6 280.62 249.6C260.96 249.6 241.83 242.97 226.5 230.89L260.13 197.38C266.33 201.03 273.38 202.95 280.62 202.95C291.4 202.95 301.54 198.75 309.19 191.13C316.84 183.51 321.05 173.37 321.05 162.56"></path>
<path fill="#01E12B" d="M843.94 325.829C845.17 324.599 846.62 323.639 848.28 322.969C849.93 322.299 851.7 321.959 853.56 321.959C855.05 321.959 856.45 322.169 857.76 322.589C859.06 323.009 860.27 323.599 861.36 324.369C862.45 325.139 863.49 326.029 864.47 327.059L871.74 318.759C870.34 317.129 868.67 315.729 866.74 314.539C864.8 313.349 862.72 312.459 860.48 311.849C858.24 311.249 855.96 310.939 853.63 310.939C849.9 310.939 846.46 311.569 843.31 312.819C840.16 314.069 837.43 315.829 835.13 318.089C832.82 320.349 831.01 323.009 829.71 326.079C828.41 329.149 827.75 332.499 827.75 336.119C827.75 339.739 828.37 343.249 829.6 346.339C830.83 349.429 832.6 352.109 834.88 354.359C837.16 356.619 839.86 358.359 842.96 359.589C846.06 360.819 849.45 361.439 853.14 361.439C855.52 361.439 857.88 361.149 860.24 360.569C862.59 359.989 864.74 359.189 866.68 358.159C868.61 357.139 870.17 355.979 871.33 354.669L865.59 345.599C864.7 346.529 863.69 347.359 862.55 348.079C861.41 348.799 860.16 349.369 858.81 349.789C857.46 350.209 856.03 350.419 854.54 350.419C852.35 350.419 850.35 350.099 848.56 349.439C846.76 348.789 845.24 347.839 843.98 346.579C842.72 345.319 841.74 343.819 841.04 342.079C840.34 340.339 839.99 338.389 839.99 336.259C839.99 334.129 840.34 332.099 841.04 330.329C841.74 328.559 842.71 327.059 843.94 325.829Z"></path>
<path fill="#01E12B" d="M929.66 317.99C927.38 315.71 924.69 313.94 921.62 312.69C918.54 311.43 915.16 310.81 911.48 310.81C907.8 310.81 904.42 311.44 901.34 312.69C898.26 313.95 895.58 315.71 893.3 317.99C891.02 320.27 889.24 322.94 887.98 326.01C886.72 329.08 886.09 332.45 886.09 336.12C886.09 339.79 886.72 343.16 887.98 346.23C889.24 349.3 891.01 351.97 893.3 354.25C895.58 356.53 898.27 358.3 901.34 359.55C904.41 360.8 907.82 361.43 911.55 361.43C915.28 361.43 918.55 360.8 921.62 359.55C924.7 358.29 927.38 356.53 929.66 354.25C931.94 351.97 933.7 349.29 934.94 346.19C936.18 343.1 936.79 339.74 936.79 336.11C936.79 332.48 936.17 329.07 934.94 326C933.7 322.93 931.94 320.26 929.66 317.98V317.99ZM923.71 341.77C923.06 343.49 922.14 344.99 920.95 346.27C919.76 347.55 918.36 348.54 916.75 349.23C915.14 349.93 913.38 350.28 911.47 350.28C909.56 350.28 907.8 349.93 906.19 349.23C904.58 348.53 903.17 347.56 901.96 346.3C900.75 345.04 899.83 343.54 899.2 341.8C898.57 340.06 898.26 338.16 898.26 336.12C898.26 334.08 898.57 332.19 899.2 330.47C899.83 328.75 900.75 327.25 901.96 325.97C903.17 324.69 904.58 323.7 906.19 323.01C907.8 322.31 909.56 321.96 911.47 321.96C913.38 321.96 915.14 322.31 916.75 323.01C918.36 323.71 919.76 324.7 920.95 325.97C922.14 327.25 923.06 328.75 923.71 330.47C924.36 332.19 924.69 334.07 924.69 336.12C924.69 338.17 924.36 340.05 923.71 341.77Z"></path>
<path fill="#01E12B" d="M980.48 334.69L966.45 311.92H955.82V360.75H967.36V345.54C967.36 341.03 967.26 337.14 967.05 333.86C967 333.08 966.94 332.31 966.87 331.55L977.92 348.9H982.54L993.93 331.28C993.84 332.27 993.76 333.26 993.7 334.25C993.49 337.6 993.39 341.36 993.39 345.55V360.76H1004.93V311.93H994.72L980.49 334.7L980.48 334.69Z"></path>
<path fill="#01E12B" d="M1051.68 334.69L1037.65 311.92H1027.02V360.75H1038.56V345.54C1038.56 341.03 1038.45 337.14 1038.25 333.86C1038.2 333.08 1038.14 332.31 1038.07 331.55L1049.12 348.89H1053.74L1065.13 331.27C1065.04 332.26 1064.96 333.25 1064.9 334.24C1064.69 337.59 1064.59 341.35 1064.59 345.54V360.75H1076.13V311.92H1065.92L1051.69 334.69H1051.68Z"></path>
<path fill="#01E12B" d="M1109.76 340.73H1129.21V331.1H1109.76V322.03H1132.36V311.92H1098.22V360.74H1133.06V350.63H1109.76V340.73Z"></path>
<path fill="#01E12B" d="M1183.7 341.489C1186.22 340.099 1188.2 338.179 1189.65 335.739C1191.1 333.299 1191.82 330.539 1191.82 327.469C1191.82 324.399 1191.1 321.829 1189.65 319.479C1188.2 317.129 1186.21 315.279 1183.67 313.929C1181.13 312.579 1178.29 311.909 1175.17 311.909H1153.14V360.739H1164.47V343.579H1170.58L1180.27 360.739H1193.84L1182.88 341.909C1183.16 341.779 1183.43 341.639 1183.7 341.489ZM1164.46 321.819H1173.06C1174.55 321.819 1175.82 322.079 1176.87 322.589C1177.92 323.099 1178.72 323.829 1179.28 324.789C1179.84 325.739 1180.12 326.849 1180.12 328.099C1180.12 329.349 1179.88 330.469 1179.39 331.449C1178.9 332.429 1178.2 333.179 1177.29 333.719C1176.38 334.249 1175.32 334.519 1174.11 334.519H1164.46V321.829V321.819Z"></path>
<path fill="#01E12B" d="M1224.37 325.829C1225.6 324.599 1227.05 323.639 1228.71 322.969C1230.37 322.299 1232.13 321.959 1233.99 321.959C1235.48 321.959 1236.88 322.169 1238.19 322.589C1239.5 323.009 1240.69 323.599 1241.79 324.369C1242.88 325.139 1243.92 326.029 1244.9 327.059L1252.18 318.759C1250.78 317.129 1249.11 315.729 1247.18 314.539C1245.24 313.349 1243.16 312.459 1240.92 311.849C1238.68 311.249 1236.4 310.939 1234.07 310.939C1230.34 310.939 1226.9 311.569 1223.75 312.819C1220.6 314.079 1217.87 315.829 1215.57 318.089C1213.26 320.349 1211.45 323.009 1210.15 326.079C1208.84 329.149 1208.19 332.499 1208.19 336.119C1208.19 339.739 1208.81 343.249 1210.04 346.339C1211.27 349.429 1213.04 352.109 1215.32 354.359C1217.6 356.619 1220.3 358.359 1223.4 359.589C1226.5 360.819 1229.89 361.439 1233.58 361.439C1235.96 361.439 1238.32 361.149 1240.68 360.569C1243.03 359.989 1245.18 359.189 1247.11 358.159C1249.04 357.139 1250.6 355.979 1251.76 354.669L1246.03 345.599C1245.14 346.529 1244.13 347.359 1242.99 348.079C1241.85 348.799 1240.6 349.369 1239.25 349.789C1237.9 350.209 1236.48 350.419 1234.98 350.419C1232.79 350.419 1230.79 350.099 1229 349.439C1227.21 348.789 1225.68 347.839 1224.42 346.579C1223.16 345.319 1222.18 343.819 1221.48 342.079C1220.78 340.339 1220.43 338.389 1220.43 336.259C1220.43 334.129 1220.78 332.099 1221.48 330.329C1222.18 328.559 1223.15 327.059 1224.38 325.829H1224.37Z"></path>
<path fill="#01E12B" d="M1281.2 350.63V340.73H1300.64V331.1H1281.2V322.03H1303.79V311.92H1269.66V360.74H1304.49V350.63H1281.2Z"></path>
</svg>
